<?xml version="1.0" encoding="UTF-8"?>
<svg
  xmlns="http://www.w3.org/2000/svg"
  viewBox="0 0 64 64"
  width="64"
  height="64"
>
  <title>Parliament hemicycle favicon</title>

  <!-- Outer hemicycle outline -->
  <path
    d="M8 40 A24 24 0 0 1 56 40"
    fill="none"
    stroke="black"
    stroke-width="2.5"
    stroke-linecap="round"
  />

  <!--
    Hemicycle center for seats: (32, 40)
    Radii: 18 (outer), 14 (middle), 10 (inner)
    Angles: 200°, 220°, 240°,      300°, 320°, 340°
    (we skip 260° and 280° to create two aisles)
  -->

  <g fill="black">
    <!-- Row 1 (outer, r = 18) -->
    <circle cx="15.1" cy="33.8" r="1.2" />
    <circle cx="18.2" cy="28.4" r="1.2" />
    <circle cx="23.0" cy="24.4" r="1.2" />
    <circle cx="41.0" cy="24.4" r="1.2" />
    <circle cx="45.8" cy="28.4" r="1.2" />
    <circle cx="48.9" cy="33.8" r="1.2" />

    <!-- Row 2 (middle, r = 14) -->
    <circle cx="18.8" cy="35.2" r="1.2" />
    <circle cx="21.3" cy="31.0" r="1.2" />
    <circle cx="25.0" cy="27.9" r="1.2" />
    <circle cx="39.0" cy="27.9" r="1.2" />
    <circle cx="42.7" cy="31.0" r="1.2" />
    <circle cx="45.2" cy="35.2" r="1.2" />

    <!-- Row 3 (inner, r = 10) -->
    <circle cx="22.6" cy="36.6" r="1.2" />
    <circle cx="24.3" cy="33.6" r="1.2" />
    <circle cx="27.0" cy="31.3" r="1.2" />
    <circle cx="37.0" cy="31.3" r="1.2" />
    <circle cx="39.7" cy="33.6" r="1.2" />
    <circle cx="41.4" cy="36.6" r="1.2" />
  </g>
</svg>

