<?xml version="1.0" encoding="UTF-8" standalone="no"?>
<!-- Creator: CorelDRAW X6 -->

<svg
   xmlns:dc="http://purl.org/dc/elements/1.1/"
   xmlns:cc="http://creativecommons.org/ns#"
   xmlns:rdf="http://www.w3.org/1999/02/22-rdf-syntax-ns#"
   xmlns:svg="http://www.w3.org/2000/svg"
   xmlns="http://www.w3.org/2000/svg"
   xmlns:xlink="http://www.w3.org/1999/xlink"
   xmlns:sodipodi="http://sodipodi.sourceforge.net/DTD/sodipodi-0.dtd"
   xmlns:inkscape="http://www.inkscape.org/namespaces/inkscape"
   xml:space="preserve"
   width="165.89125"
   height="103.8475"
   version="1.1"
   style="fill-rule:evenodd"
   viewBox="0 0 4681.8198 2930.8072"
   enable-background="new 0 0 240.855 113.021"
   inkscape:version="0.48.2 r9819"
   sodipodi:docname="Miljøpartiet De Grønne Logo.svg"
   id="svg5876"><metadata
   id="metadata5927"><rdf:RDF><cc:Work
       rdf:about=""><dc:format>image/svg+xml</dc:format><dc:type
         rdf:resource="http://purl.org/dc/dcmitype/StillImage" /></cc:Work></rdf:RDF></metadata><sodipodi:namedview
   pagecolor="#ffffff"
   bordercolor="#666666"
   borderopacity="1"
   objecttolerance="10"
   gridtolerance="10"
   guidetolerance="10"
   inkscape:pageopacity="0"
   inkscape:pageshadow="2"
   inkscape:window-width="1146"
   inkscape:window-height="835"
   id="namedview5925"
   showgrid="false"
   fit-margin-top="0"
   fit-margin-left="0"
   fit-margin-right="0"
   fit-margin-bottom="0"
   inkscape:zoom="2.5371828"
   inkscape:cx="43.277909"
   inkscape:cy="52.006567"
   inkscape:window-x="1920"
   inkscape:window-y="0"
   inkscape:window-maximized="0"
   inkscape:current-layer="svg5876" />
 <defs
   id="defs5878">
  <style
   type="text/css"
   id="style5880">
   
    .fil0 {fill:url(#id0)}
    .fil7 {fill:url(#id1)}
    .fil9 {fill:url(#id2)}
    .fil10 {fill:url(#id3)}
    .fil2 {fill:url(#id4)}
    .fil6 {fill:url(#id5)}
    .fil5 {fill:url(#id6)}
    .fil1 {fill:url(#id7)}
    .fil8 {fill:url(#id8)}
    .fil11 {fill:url(#id9)}
    .fil4 {fill:url(#id10)}
    .fil3 {fill:url(#id11)}
   
  </style>
  <linearGradient
   id="id0"
   gradientUnits="userSpaceOnUse"
   x1="9090.9004"
   y1="14607"
   x2="8940.4404"
   y2="14529.7">
   <stop
   offset="0"
   style="stop-color:#008644"
   id="stop5883" />
   <stop
   offset="1"
   style="stop-color:#78B833"
   id="stop5885" />
  </linearGradient>
  <linearGradient
   id="id1"
   gradientUnits="userSpaceOnUse"
   xlink:href="#id0"
   x1="11388.5"
   y1="13997.1"
   x2="11238.1"
   y2="13919.8">
  </linearGradient>
  <linearGradient
   id="id2"
   gradientUnits="userSpaceOnUse"
   xlink:href="#id0"
   x1="11200.3"
   y1="14607"
   x2="11049.8"
   y2="14529.7">
  </linearGradient>
  <linearGradient
   id="id3"
   gradientUnits="userSpaceOnUse"
   xlink:href="#id0"
   x1="11945.7"
   y1="14994.8"
   x2="8164.3501"
   y2="13052">
  </linearGradient>
  <linearGradient
   id="id4"
   gradientUnits="userSpaceOnUse"
   xlink:href="#id0"
   x1="10442.8"
   y1="14115.3"
   x2="10309.5"
   y2="14046.8">
  </linearGradient>
  <linearGradient
   id="id5"
   gradientUnits="userSpaceOnUse"
   xlink:href="#id0"
   x1="8738.3896"
   y1="14680.1"
   x2="8557.1299"
   y2="14587">
  </linearGradient>
  <linearGradient
   id="id6"
   gradientUnits="userSpaceOnUse"
   xlink:href="#id0"
   x1="9748.0498"
   y1="14084.2"
   x2="9601.4502"
   y2="14008.9">
  </linearGradient>
  <linearGradient
   id="id7"
   gradientUnits="userSpaceOnUse"
   xlink:href="#id0"
   x1="10179.4"
   y1="14694.1"
   x2="10032.7"
   y2="14618.7">
  </linearGradient>
  <linearGradient
   id="id8"
   gradientUnits="userSpaceOnUse"
   xlink:href="#id0"
   x1="10127.3"
   y1="14070.4"
   x2="9946.1602"
   y2="13977.3">
  </linearGradient>
  <linearGradient
   id="id9"
   gradientUnits="userSpaceOnUse"
   xlink:href="#id0"
   x1="9587.25"
   y1="14678.4"
   x2="9406.6504"
   y2="14585.6">
  </linearGradient>
  <linearGradient
   id="id10"
   gradientUnits="userSpaceOnUse"
   xlink:href="#id0"
   x1="9712.7695"
   y1="14038.4"
   x2="9566.3096"
   y2="13963.2">
  </linearGradient>
  <linearGradient
   id="id11"
   gradientUnits="userSpaceOnUse"
   xlink:href="#id0"
   x1="10144.2"
   y1="14648.2"
   x2="9997.6699"
   y2="14572.9">
  </linearGradient>
 <linearGradient
   x1="0"
   y1="0"
   x2="1"
   y2="0"
   gradientUnits="userSpaceOnUse"
   gradientTransform="matrix(-93.6754,48.130402,-48.130402,-93.6754,538.62149,21.685402)"
   spreadMethod="pad"
   id="linearGradient5769"><stop
     style="stop-opacity:1;stop-color:#00904c"
     offset="0"
     id="stop5771" /><stop
     style="stop-opacity:1;stop-color:#72bf44"
     offset="1"
     id="stop5773" /></linearGradient><linearGradient
   x1="0"
   y1="0"
   x2="1"
   y2="0"
   gradientUnits="userSpaceOnUse"
   gradientTransform="matrix(-93.667503,48.1264,-48.1264,-93.667503,549.79968,43.450996)"
   spreadMethod="pad"
   id="linearGradient5749"><stop
     style="stop-opacity:1;stop-color:#00904c"
     offset="0"
     id="stop5751" /><stop
     style="stop-opacity:1;stop-color:#72bf44"
     offset="1"
     id="stop5753" /></linearGradient><linearGradient
   x1="0"
   y1="0"
   x2="1"
   y2="0"
   gradientUnits="userSpaceOnUse"
   gradientTransform="matrix(-93.656601,48.1208,-48.1208,-93.656601,549.70061,43.259102)"
   spreadMethod="pad"
   id="linearGradient5729"><stop
     style="stop-opacity:1;stop-color:#00904c"
     offset="0"
     id="stop5731" /><stop
     style="stop-opacity:1;stop-color:#72bf44"
     offset="1"
     id="stop5733" /></linearGradient><linearGradient
   x1="0"
   y1="0"
   x2="1"
   y2="0"
   gradientUnits="userSpaceOnUse"
   gradientTransform="matrix(-93.671303,48.1283,-48.1283,-93.671303,549.6879,43.229805)"
   spreadMethod="pad"
   id="linearGradient5709"><stop
     style="stop-opacity:1;stop-color:#00904c"
     offset="0"
     id="stop5711" /><stop
     style="stop-opacity:1;stop-color:#72bf44"
     offset="1"
     id="stop5713" /></linearGradient><linearGradient
   x1="0"
   y1="0"
   x2="1"
   y2="0"
   gradientUnits="userSpaceOnUse"
   gradientTransform="matrix(-93.667099,48.126202,-48.126202,-93.667099,558.5219,60.427101)"
   spreadMethod="pad"
   id="linearGradient5689"><stop
     style="stop-opacity:1;stop-color:#00904c"
     offset="0"
     id="stop5691" /><stop
     style="stop-opacity:1;stop-color:#72bf44"
     offset="1"
     id="stop5693" /></linearGradient><linearGradient
   x1="0"
   y1="0"
   x2="1"
   y2="0"
   gradientUnits="userSpaceOnUse"
   gradientTransform="matrix(-93.667099,48.126202,-48.126202,-93.667099,533.1454,11.038399)"
   spreadMethod="pad"
   id="linearGradient5669"><stop
     style="stop-opacity:1;stop-color:#00904c"
     offset="0"
     id="stop5671" /><stop
     style="stop-opacity:1;stop-color:#72bf44"
     offset="1"
     id="stop5673" /></linearGradient><linearGradient
   x1="0"
   y1="0"
   x2="1"
   y2="0"
   gradientUnits="userSpaceOnUse"
   gradientTransform="matrix(-93.667099,48.126202,-48.126202,-93.667099,547.1313,38.259071)"
   spreadMethod="pad"
   id="linearGradient5649"><stop
     style="stop-opacity:1;stop-color:#00904c"
     offset="0"
     id="stop5651" /><stop
     style="stop-opacity:1;stop-color:#72bf44"
     offset="1"
     id="stop5653" /></linearGradient><linearGradient
   x1="0"
   y1="0"
   x2="1"
   y2="0"
   gradientUnits="userSpaceOnUse"
   gradientTransform="matrix(-93.659897,48.122398,-48.122398,-93.659897,547.351,38.694618)"
   spreadMethod="pad"
   id="linearGradient5629"><stop
     style="stop-opacity:1;stop-color:#00904c"
     offset="0"
     id="stop5631" /><stop
     style="stop-opacity:1;stop-color:#72bf44"
     offset="1"
     id="stop5633" /></linearGradient><linearGradient
   x1="0"
   y1="0"
   x2="1"
   y2="0"
   gradientUnits="userSpaceOnUse"
   gradientTransform="matrix(-93.659897,48.122398,-48.122398,-93.659897,542.50629,29.262001)"
   spreadMethod="pad"
   id="linearGradient5609"><stop
     style="stop-opacity:1;stop-color:#00904c"
     offset="0"
     id="stop5611" /><stop
     style="stop-opacity:1;stop-color:#72bf44"
     offset="1"
     id="stop5613" /></linearGradient><linearGradient
   x1="0"
   y1="0"
   x2="1"
   y2="0"
   gradientUnits="userSpaceOnUse"
   gradientTransform="matrix(-93.680298,48.1329,-48.1329,-93.680298,551.2475,46.258614)"
   spreadMethod="pad"
   id="linearGradient5589"><stop
     style="stop-opacity:1;stop-color:#00904c"
     offset="0"
     id="stop5591" /><stop
     style="stop-opacity:1;stop-color:#72bf44"
     offset="1"
     id="stop5593" /></linearGradient><linearGradient
   x1="0"
   y1="0"
   x2="1"
   y2="0"
   gradientUnits="userSpaceOnUse"
   gradientTransform="matrix(-93.667099,48.126202,-48.126202,-93.667099,542.2856,28.8274)"
   spreadMethod="pad"
   id="linearGradient5569"><stop
     style="stop-opacity:1;stop-color:#00904c"
     offset="0"
     id="stop5571" /><stop
     style="stop-opacity:1;stop-color:#72bf44"
     offset="1"
     id="stop5573" /></linearGradient><linearGradient
   x1="0"
   y1="0"
   x2="1"
   y2="0"
   gradientUnits="userSpaceOnUse"
   gradientTransform="matrix(-93.667099,48.126202,-48.126202,-93.667099,536.1694,16.923103)"
   spreadMethod="pad"
   id="linearGradient5549"><stop
     style="stop-opacity:1;stop-color:#00904c"
     offset="0"
     id="stop5551" /><stop
     style="stop-opacity:1;stop-color:#72bf44"
     offset="1"
     id="stop5553" /></linearGradient><clipPath
   clipPathUnits="userSpaceOnUse"
   id="clipPath7428"><path
     inkscape:connector-curvature="0"
     d="m 0,0 841.89,0 0,595.276 L 0,595.276 0,0 z"
     id="path7430" /></clipPath><clipPath
   clipPathUnits="userSpaceOnUse"
   id="clipPath7386"><path
     inkscape:connector-curvature="0"
     d="m 0,0 841.89,0 0,595.276 L 0,595.276 0,0 z"
     id="path7388" /></clipPath><clipPath
   clipPathUnits="userSpaceOnUse"
   id="clipPath7368"><path
     inkscape:connector-curvature="0"
     d="m 0,0 841.89,0 0,595.276 L 0,595.276 0,0 z"
     id="path7370" /></clipPath><linearGradient
   x1="0"
   y1="0"
   x2="1"
   y2="0"
   gradientUnits="userSpaceOnUse"
   gradientTransform="matrix(-109.80545,56.432327,56.432327,109.80545,499.14034,334.40836)"
   spreadMethod="pad"
   id="linearGradient7356"><stop
     style="stop-opacity:1;stop-color:#00853e"
     offset="0"
     id="stop7358" /><stop
     style="stop-opacity:1;stop-color:#76b82a"
     offset="1"
     id="stop7360" /></linearGradient></defs>
 
<g
   transform="matrix(35.277779,0,0,-35.277779,-12505.267,11919.056)"
   id="g7344"><g
     id="g7346"><g
       id="g7352"><g
         id="g7354"><path
           inkscape:connector-curvature="0"
           d="m 376.634,337.863 c -12.236,0 -22.154,-9.914 -22.154,-22.154 l 0,0 0,-60.924 110.775,0 c 11.183,0 20.428,8.279 21.938,19.044 l 0,0 0,64.034 -110.559,0 z"
           style="fill:url(#linearGradient7356);stroke:none"
           id="path7362" /></g></g></g></g><g
   transform="matrix(35.277779,0,0,-35.277779,-12505.267,11919.056)"
   id="g7364"><g
     id="g7366"
     clip-path="url(#clipPath7368)"><g
       id="g7372"
       transform="translate(378.7636,296.8669)"><path
         inkscape:connector-curvature="0"
         d="m 0,0 0,-5.957 2.686,0 0,6.72 c 0,2.193 -1.166,4.345 -3.963,4.345 -1.616,0 -2.823,-0.742 -3.54,-2.037 -0.605,1.205 -1.704,2.037 -3.361,2.037 -1.724,0 -2.869,-0.987 -3.339,-2.037 l -0.044,0 0,0.593 c 0,0.625 -0.507,1.133 -1.128,1.133 l -1.424,0 0,-10.754 2.689,0 0,5.913 c 0,1.433 0.74,2.91 2.352,2.91 1.365,0 1.991,-1.006 1.991,-2.326 l 0,-6.497 2.693,0 0,5.865 c 0,1.388 0.688,2.958 2.37,2.958 C -0.292,2.866 0,1.279 0,0"
         style="fill:#ffffff;fill-opacity:1;fill-rule:nonzero;stroke:none"
         id="path7374" /></g><g
       id="g7376"
       transform="translate(385.7567,303.3282)"><path
         inkscape:connector-curvature="0"
         d="M 0,0 C 0.987,0 1.749,0.692 1.749,1.606 1.749,2.527 0.987,3.221 0,3.221 -0.988,3.221 -1.703,2.46 -1.703,1.606 -1.703,0.757 -0.988,0 0,0"
         style="fill:#ffffff;fill-opacity:1;fill-rule:nonzero;stroke:none"
         id="path7378" /></g></g></g><path
   inkscape:connector-curvature="0"
   d="m 1056.7111,1656.3978 94.8267,0 0,-379.3773 -94.8267,0 0,379.3773 z"
   style="fill:#ffffff;fill-opacity:1;fill-rule:nonzero;stroke:none"
   id="path7380" /><g
   transform="matrix(35.277779,0,0,-35.277779,-12505.267,11919.056)"
   id="g7382"><g
     id="g7384"
     clip-path="url(#clipPath7386)"><g
       id="g7390"
       transform="translate(390.0532,305.3683)"><path
         inkscape:connector-curvature="0"
         d="m 0,0 0,-14.458 2.689,0 0,16.609 -0.536,0 C 0.964,2.151 0,1.187 0,0"
         style="fill:#ffffff;fill-opacity:1;fill-rule:nonzero;stroke:none"
         id="path7392" /></g><g
       id="g7394"
       transform="translate(411.1286,299.9791)"><path
         inkscape:connector-curvature="0"
         d="M 0,0 1.543,1.597 0.605,2.487 -0.965,0.87 c -0.921,0.727 -2.172,1.125 -3.542,1.125 -3.243,0 -5.84,-2.306 -5.84,-5.691 0,-1.479 0.49,-2.751 1.319,-3.699 l -1.503,-1.52 0.897,-0.915 1.568,1.586 c 0.939,-0.738 2.198,-1.145 3.559,-1.145 3.252,0 5.851,2.31 5.851,5.693 C 1.344,-2.235 0.85,-0.979 0,0 m -7.708,-3.721 c 0,1.684 1.008,3.61 3.201,3.61 0.744,0 1.457,-0.288 1.927,-0.693 l -4.634,-4.772 c -0.335,0.451 -0.494,1.21 -0.494,1.855 m 3.201,-3.493 c -0.736,0 -1.454,0.228 -1.943,0.694 l 4.677,4.751 c 0.312,-0.497 0.47,-1.211 0.47,-1.885 0,-1.677 -0.915,-3.56 -3.204,-3.56"
         style="fill:#ffffff;fill-opacity:1;fill-rule:nonzero;stroke:none"
         id="path7396" /></g><g
       id="g7398"
       transform="translate(417.2491,287.6989)"><path
         inkscape:connector-curvature="0"
         d="m 0,0 0,4.641 0.045,0 c 0.693,-1.07 2.061,-1.749 3.559,-1.749 3.277,0 5.29,2.602 5.29,5.735 0,3.189 -2.149,5.649 -5.219,5.649 -1.973,0 -3.181,-0.966 -3.717,-1.813 l -0.071,0 0,1.502 -2.574,0 0,-15.638 0.591,0 C -1.071,-1.673 -0.218,-0.96 0,0 m 3.068,12.08 c 2.087,0 3.094,-1.769 3.094,-3.453 0,-1.677 -1.007,-3.49 -3.094,-3.49 -1.97,0 -3.155,1.771 -3.155,3.447 0,1.677 1.185,3.496 3.155,3.496"
         style="fill:#ffffff;fill-opacity:1;fill-rule:nonzero;stroke:none"
         id="path7400" /></g><g
       id="g7402"
       transform="translate(434.8392,292.2759)"><path
         inkscape:connector-curvature="0"
         d="m 0,0 0.065,0 0,-1.366 2.515,0 0,6.541 c 0,2.147 -0.943,4.524 -4.801,4.524 -1.633,0 -3.338,-0.582 -4.546,-1.706 l 1.389,-1.634 c 0.694,0.7 1.792,1.234 2.937,1.234 1.343,0 2.464,-0.649 2.464,-1.969 l 0,-0.271 c -3.364,0 -7.395,-0.444 -7.395,-3.647 0,-2.512 2.306,-3.339 4.031,-3.339 1.524,0 2.804,0.693 3.341,1.633 m -2.803,0.402 c -0.913,0 -1.881,0.315 -1.881,1.347 0,1.588 2.396,1.792 4.102,1.792 l 0.605,0 0,-0.388 c 0,-1.698 -0.987,-2.751 -2.826,-2.751"
         style="fill:#ffffff;fill-opacity:1;fill-rule:nonzero;stroke:none"
         id="path7404" /></g><g
       id="g7406"
       transform="translate(446.2557,299.445)"><path
         inkscape:connector-curvature="0"
         d="m 0,0 0,2.461 c -0.179,0.052 -0.452,0.068 -0.651,0.068 -1.412,0 -2.553,-0.87 -3.136,-2.106 l -0.045,0 0,1.796 -2.579,0 0,-10.754 2.694,0 0,5.756 c 0,0.785 0.468,2.892 2.888,2.892 C -0.584,0.113 -0.362,0.088 0,0"
         style="fill:#ffffff;fill-opacity:1;fill-rule:nonzero;stroke:none"
         id="path7408" /></g><g
       id="g7410"
       transform="translate(448.2891,302.6204)"><path
         inkscape:connector-curvature="0"
         d="m 0,0 0,-8.13 c 0,-2.063 0.648,-3.804 3.494,-3.804 0.605,0 1.32,0.108 1.794,0.286 L 5.197,-9.541 C 4.883,-9.697 4.412,-9.768 4.055,-9.768 c -1.189,0 -1.41,0.697 -1.41,1.662 l 0,5.001 2.687,0 0,2.149 -2.687,0 0,3.113 -0.496,0 C 0.967,2.157 0,1.189 0,0"
         style="fill:#ffffff;fill-opacity:1;fill-rule:nonzero;stroke:none"
         id="path7412" /></g><g
       id="g7414"
       transform="translate(478.856,299.5154)"><path
         inkscape:connector-curvature="0"
         d="m 0,0 0,2.149 -2.684,0 0,3.113 -0.492,0 c -1.194,0 -2.155,-0.968 -2.155,-2.157 l 0,-8.13 c 0,-2.063 0.648,-3.804 3.494,-3.804 0.608,0 1.324,0.108 1.796,0.286 l -0.091,2.107 c -0.317,-0.156 -0.784,-0.227 -1.142,-0.227 -1.187,0 -1.41,0.697 -1.41,1.662 L -2.684,0 0,0 z"
         style="fill:#ffffff;fill-opacity:1;fill-rule:nonzero;stroke:none"
         id="path7416" /></g><g
       id="g7418"
       transform="translate(457.3705,303.3282)"><path
         inkscape:connector-curvature="0"
         d="M 0,0 C 0.989,0 1.753,0.692 1.753,1.606 1.753,2.527 0.989,3.221 0,3.221 -0.981,3.221 -1.699,2.46 -1.699,1.606 -1.699,0.757 -0.981,0 0,0"
         style="fill:#ffffff;fill-opacity:1;fill-rule:nonzero;stroke:none"
         id="path7420" /></g></g></g><path
   inkscape:connector-curvature="0"
   d="m 3677.9911,1277.0205 -94.8266,0 0,379.3773 94.8266,0 0,-379.3773 z"
   style="fill:#ffffff;fill-opacity:1;fill-rule:nonzero;stroke:none"
   id="path7422" /><g
   transform="matrix(35.277779,0,0,-35.277779,-12505.267,11919.056)"
   id="g7424"><g
     id="g7426"
     clip-path="url(#clipPath7428)"><g
       id="g7432"
       transform="translate(466.4987,301.9745)"><path
         inkscape:connector-curvature="0"
         d="m 0,0 c -3.247,0 -5.69,-2.283 -5.69,-5.753 0,-3.498 2.466,-5.631 5.78,-5.631 2.04,0 3.561,0.721 4.615,2.158 L 2.914,-7.795 C 2.308,-8.651 1.411,-9.183 0.069,-9.183 c -1.57,0 -2.957,1.12 -3.07,2.637 l 8.178,0 C 5.199,-6.293 5.199,-6.07 5.199,-5.827 5.199,-1.947 3.002,0 0,0 m -3.001,-4.616 c 0.113,1.503 1.388,2.602 2.975,2.602 1.75,0 2.536,-1.215 2.536,-2.602 l -5.511,0 z"
         style="fill:#ffffff;fill-opacity:1;fill-rule:nonzero;stroke:none"
         id="path7434" /></g><g
       id="g7436"
       transform="translate(373.3302,282.3622)"><path
         inkscape:connector-curvature="0"
         d="m 0,0 -0.018,0.109 0,-4.132 -0.066,0 c -0.561,0.698 -1.637,1.681 -3.607,1.681 -3.072,0 -5.224,-2.465 -5.224,-5.646 0,-3.137 2.017,-5.736 5.293,-5.736 1.496,0 2.954,0.694 3.69,1.923 l 0.048,0 0,-1.613 2.555,0 0,15.558 -0.519,0 C 0.968,2.144 0,1.182 0,0 m -3.086,-11.487 c -2.086,0 -3.097,1.819 -3.097,3.499 0,1.683 1.011,3.451 3.097,3.451 1.971,0 3.154,-1.815 3.154,-3.499 0,-1.68 -1.183,-3.451 -3.154,-3.451"
         style="fill:#ffffff;fill-opacity:1;fill-rule:nonzero;stroke:none"
         id="path7438" /></g><g
       id="g7440"
       transform="translate(383.7635,280.0204)"><path
         inkscape:connector-curvature="0"
         d="m 0,0 c -3.25,0 -5.689,-2.284 -5.689,-5.757 0,-3.499 2.466,-5.625 5.777,-5.625 2.039,0 3.564,0.712 4.617,2.15 l -1.792,1.431 c -0.604,-0.847 -1.505,-1.39 -2.846,-1.39 -1.568,0 -2.959,1.12 -3.066,2.65 l 8.171,0 c 0.027,0.246 0.027,0.468 0.027,0.717 C 5.199,-1.949 3.003,0 0,0 m -2.999,-4.621 c 0.107,1.507 1.387,2.605 2.977,2.605 1.749,0 2.534,-1.21 2.534,-2.605 l -5.511,0 z"
         style="fill:#ffffff;fill-opacity:1;fill-rule:nonzero;stroke:none"
         id="path7442" /></g><g
       id="g7444"
       transform="translate(403.9847,278.5791)"><path
         inkscape:connector-curvature="0"
         d="m 0,0 0,-0.489 -0.041,0 c -0.786,1.306 -2.197,1.93 -3.698,1.93 -3.246,0 -5.262,-2.533 -5.262,-5.646 0,-3.045 2.084,-5.602 5.307,-5.602 1.48,0 2.733,0.56 3.515,1.608 l 0.048,0 0,-0.783 c 0,-2.129 -0.809,-3.694 -3.407,-3.694 -1.344,0 -2.732,0.534 -3.762,1.521 l -1.543,-2.076 c 1.387,-1.147 3.579,-1.772 5.33,-1.772 4.188,0 6.069,2.465 6.069,6.335 l 0,9.796 -1.425,0 C 0.511,1.128 0,0.619 0,0 m -3.199,-7.591 c -1.927,0 -3.071,1.706 -3.071,3.408 0,1.902 1.144,3.429 3.091,3.429 1.951,0 3.179,-1.572 3.179,-3.429 0,-1.796 -1.211,-3.408 -3.199,-3.408"
         style="fill:#ffffff;fill-opacity:1;fill-rule:nonzero;stroke:none"
         id="path7446" /></g><g
       id="g7448"
       transform="translate(427.2651,280.5148)"><path
         inkscape:connector-curvature="0"
         d="m 0,0 -1.569,-1.615 c -0.917,0.716 -2.171,1.121 -3.539,1.121 -3.25,0 -5.85,-2.312 -5.85,-5.695 0,-1.477 0.495,-2.757 1.326,-3.698 l -1.504,-1.52 0.894,-0.919 1.574,1.587 c 0.939,-0.736 2.192,-1.137 3.56,-1.137 3.249,0 5.848,2.305 5.848,5.687 0,1.453 -0.494,2.715 -1.346,3.703 L 0.943,-0.899 0,0 z m -8.311,-6.213 c 0,1.689 1.006,3.614 3.203,3.614 0.738,0 1.458,-0.294 1.926,-0.698 l -4.636,-4.771 c -0.338,0.445 -0.493,1.213 -0.493,1.855 m 3.203,-3.495 c -0.739,0 -1.454,0.227 -1.951,0.699 l 4.684,4.747 c 0.314,-0.496 0.469,-1.206 0.469,-1.879 0,-1.679 -0.915,-3.567 -3.202,-3.567"
         style="fill:#ffffff;fill-opacity:1;fill-rule:nonzero;stroke:none"
         id="path7450" /></g><g
       id="g7452"
       transform="translate(435.9766,280.0204)"><path
         inkscape:connector-curvature="0"
         d="m 0,0 c -1.595,0 -2.871,-0.964 -3.338,-2.04 l -0.045,0 0,0.599 c 0,0.619 -0.506,1.128 -1.125,1.128 l -1.429,0 0,-10.759 2.691,0 0,5.918 c 0,1.431 0.804,2.91 2.505,2.91 1.727,0 2.018,-1.587 2.018,-2.869 l 0,-5.959 2.69,0 0,6.722 C 3.967,-2.151 2.803,0 0,0"
         style="fill:#ffffff;fill-opacity:1;fill-rule:nonzero;stroke:none"
         id="path7454" /></g><g
       id="g7456"
       transform="translate(448.3304,280.0204)"><path
         inkscape:connector-curvature="0"
         d="m 0,0 c -1.593,0 -2.867,-0.964 -3.338,-2.04 l -0.041,0 0,0.599 c 0,0.619 -0.506,1.128 -1.131,1.128 l -1.422,0 0,-10.759 2.685,0 0,5.918 c 0,1.431 0.807,2.91 2.508,2.91 1.724,0 2.018,-1.587 2.018,-2.869 l 0,-5.959 2.687,0 0,6.722 C 3.966,-2.151 2.804,0 0,0"
         style="fill:#ffffff;fill-opacity:1;fill-rule:nonzero;stroke:none"
         id="path7458" /></g><g
       id="g7460"
       transform="translate(459.7145,280.0204)"><path
         inkscape:connector-curvature="0"
         d="m 0,0 c -3.245,0 -5.686,-2.284 -5.686,-5.757 0,-3.499 2.464,-5.625 5.778,-5.625 2.041,0 3.564,0.712 4.616,2.15 L 2.916,-7.801 C 2.31,-8.648 1.415,-9.191 0.07,-9.191 c -1.564,0 -2.956,1.12 -3.066,2.65 l 8.177,0 c 0.02,0.246 0.02,0.468 0.02,0.717 C 5.201,-1.949 3.007,0 0,0 m -2.996,-4.621 c 0.11,1.507 1.389,2.605 2.976,2.605 1.746,0 2.534,-1.21 2.534,-2.605 l -5.51,0 z"
         style="fill:#ffffff;fill-opacity:1;fill-rule:nonzero;stroke:none"
         id="path7462" /></g><g
       id="g7464"
       transform="translate(396.9972,303.3282)"><path
         inkscape:connector-curvature="0"
         d="M 0,0 C 0.987,0 1.746,0.692 1.746,1.606 1.746,2.527 0.987,3.221 0,3.221 -0.987,3.221 -1.704,2.46 -1.704,1.606 -1.704,0.757 -0.987,0 0,0"
         style="fill:#ffffff;fill-opacity:1;fill-rule:nonzero;stroke:none"
         id="path7466" /></g><g
       id="g7468"
       transform="translate(398.3625,288.1783)"><path
         inkscape:connector-curvature="0"
         d="m 0,0 0,13.486 -2.688,0 0,-15.638 0.537,0 C -0.963,-2.152 0,-1.189 0,0"
         style="fill:#ffffff;fill-opacity:1;fill-rule:nonzero;stroke:none"
         id="path7470" /></g><g
       id="g7472"
       transform="translate(411.7665,277.916)"><path
         inkscape:connector-curvature="0"
         d="m 0,0 -0.043,0 0,1.792 -2.576,0 0,-10.76 2.687,0 0,5.757 c 0,0.789 0.473,2.896 2.887,2.896 0.168,0 0.329,-0.01 0.528,-0.046 l 0,2.45 C 3.366,2.099 3.242,2.104 3.139,2.104 1.724,2.104 0.582,1.232 0,0"
         style="fill:#ffffff;fill-opacity:1;fill-rule:nonzero;stroke:none"
         id="path7474" /></g></g></g></svg>