<?xml version="1.0" encoding="UTF-8"?>
<svg data-name="Layer 1" version="1.1" viewBox="0 0 1500 339" xmlns="http://www.w3.org/2000/svg" xmlns:cc="http://creativecommons.org/ns#" xmlns:dc="http://purl.org/dc/elements/1.1/" xmlns:rdf="http://www.w3.org/1999/02/22-rdf-syntax-ns#">
 <metadata>
  <rdf:RDF>
   <cc:Work rdf:about="">
    <dc:format>image/svg+xml</dc:format>
    <dc:type rdf:resource="http://purl.org/dc/dcmitype/StillImage"/>
    <dc:title/>
   </cc:Work>
  </rdf:RDF>
 </metadata>
 <defs>
  <style>.cls-1{fill:#0065f1;}</style>
 </defs>
 <path class="cls-1" d="M20.75,95.74,58.33,314.8a10.29,10.29,0,0,0,15.49,7.06c55-33.41,272.51-158.08,399.76-120.7,3.06.9,5.69-1.84,5.17-5-1.38-8.35-14.42-77.92-15.84-86C447.37,21.13,291.64-25,27.35,83.66A11,11,0,0,0,20.75,95.74Z"/>
 <path class="cls-1" d="M411.87,280.77c-9.51.45-9.89-7.77-1.42-9.89,62.35-15.59,89.56-44.68,87.08-76.12-.51-6.46-9.41-64.95-11.62-85.08a8.76,8.76,0,0,1,5.58-9.13C512.84,92.36,579.78,63.72,624,27.06a7.89,7.89,0,0,1,12.74,4.58l35,176a9.22,9.22,0,0,1-4.78,9.58C636.6,231.87,532.14,275.14,411.87,280.77Z"/>
 <path class="cls-1" d="m386.7 223.17 9.88 29.63c0.94 4.45 3.11 6.43 7.41 4.94 39.22-13.57 58-25.93 56.79-35.8-1.08-8.58-25.31-12.72-66.38-6.87-4.4 0.62-8.62 3.74-7.7 8.1z"/>
 <path class="cls-1" d="M959.47,247.14H935.18V162.43H842.79v84.71H818.62V63.87h24.17v78.8h92.39V63.87h24.29Z"/>
 <path class="cls-1" d="m992.58 177.78q0-20 7.74-35.93a58 58 0 0 1 21.9-24.67 59.86 59.86 0 0 1 32.16-8.75 62.31 62.31 0 0 1 25.68 5.28l9.19-18.63h15.61l-12.86 25.81q24.54 19.38 24.54 59.66 0 19.89-7.8 35.88a57.75 57.75 0 0 1-21.9 24.61q-14.1 8.61-32.23 8.62a62.8 62.8 0 0 1-23.91-4.41l-9.3 18.75h-15.61l12.59-25.55q-25.8-18.75-25.8-60.67zm23.29 2.77q0 24.42 12.21 38.39l43.17-87.35a36.19 36.19 0 0 0-16.87-4q-17.37 0-27.94 13.72t-10.57 39.24zm77.28-2.77q0-22.9-11-36.88l-42.8 86.6a36.38 36.38 0 0 0 15.23 3.15q17.5 0 28-13.78t10.51-37.07z"/>
 <path class="cls-1" d="m1350.6 131.84a69.42 69.42 0 0 0-11.45-0.88q-22.92 0-31.09 19.51v96.67h-23.29v-136.14h22.66l0.38 15.73q11.45-18.25 32.47-18.25 6.79 0 10.32 1.76z"/>
 <path class="cls-1" d="m1424.1 249.66q-27.69 0-45.06-18.19t-17.37-48.65v-4.28q0-20.26 7.74-36.19a60.35 60.35 0 0 1 21.65-24.92 54.42 54.42 0 0 1 30.14-9q26.57 0 41.29 17.49t14.73 50.1v9.69h-92.27q0.51 20.14 11.77 32.54t28.64 12.4q12.33 0 20.89-5a52.51 52.51 0 0 0 15-13.35l14.23 11.08q-17.15 26.28-51.38 26.28zm-2.9-122.1a31.05 31.05 0 0 0-23.66 10.26q-9.57 10.26-11.83 28.76h68.22v-1.76q-1-17.74-9.57-27.5t-23.16-9.76z"/>
 <path d="m1147.9 268.49c34.458 33.014 91.148 24.625 91.148-21.892v-135.6" fill="none" stroke="#0065f1" stroke-width="22"/>
 <path d="m1239.7 147.93c-9.9928-21.271-33.343-30.781-53.497-27.798-28.01 4.1462-38.039 28.182-38.237 57.712-0.2064 30.816 10.858 57.599 44.078 60.409 19.515 1.6508 40.946-8.9173 47.656-28.988" fill="none" stroke="#0065f1" stroke-width="22"/>
</svg>
