<?xml version="1.0" encoding="UTF-8" standalone="no"?>
<svg
   width="194.907"
   height="161.24001"
   fill="none"
   version="1.1"
   id="svg11"
   sodipodi:docname="venstre_logo_2023.svg"
   inkscape:version="1.1.2 (b8e25be833, 2022-02-05)"
   xmlns:inkscape="http://www.inkscape.org/namespaces/inkscape"
   xmlns:sodipodi="http://sodipodi.sourceforge.net/DTD/sodipodi-0.dtd"
   xmlns="http://www.w3.org/2000/svg"
   xmlns:svg="http://www.w3.org/2000/svg">
  <sodipodi:namedview
     id="namedview13"
     pagecolor="#505050"
     bordercolor="#eeeeee"
     borderopacity="1"
     inkscape:pageshadow="0"
     inkscape:pageopacity="0"
     inkscape:pagecheckerboard="0"
     showgrid="false"
     fit-margin-top="0"
     fit-margin-left="0"
     fit-margin-right="0"
     fit-margin-bottom="0"
     inkscape:zoom="3.6871795"
     inkscape:cx="97.364395"
     inkscape:cy="80.820584"
     inkscape:window-width="1920"
     inkscape:window-height="1017"
     inkscape:window-x="-8"
     inkscape:window-y="-8"
     inkscape:window-maximized="1"
     inkscape:current-layer="svg11" />
  <g
     clip-path="url(#clip0_1_2)"
     fill="#fff"
     id="g4"
     style="fill:#006666;fill-opacity:1"
     transform="translate(0,-16.824)">
    <path
       d="m 98.889,124.48 c 29.729,0 53.828,-24.1 53.828,-53.827 0,-29.728 -24.101,-53.829 -53.828,-53.829 -19.894,0 -37.203,10.719 -46.519,26.77 -0.01,0.017 -0.136,-0.01 0.323,0 0.457,0.01 15.35,0 15.35,0 l 19.753,49.575 19.754,-49.63 23.093,0.107 -23.093,54.69 -10.657,25.219 -0.323,0.833 c 0,10e-4 1.678,0.092 2.319,0.092 z M 48.58,51.64 77.54,120.177 c 0,0 -19.77,-6.467 -29.068,-29.748 -8.503,-21.293 0.109,-38.788 0.109,-38.788 z m 146.327,94.782 h -17.516 v 30.783 h 17.515 v -6.778 h -9.513 v -5.307 h 8.983 v -6.777 h -8.983 v -5.144 h 9.513 v -6.777 z M 163.96,164.59 c 2.204,-0.517 3.871,-1.502 5.002,-2.959 1.129,-1.455 1.694,-3.355 1.694,-5.696 a 10.53,10.53 0 0 0 -0.633,-3.675 8.708,8.708 0 0 0 -1.878,-3.02 c -0.83,-0.871 -1.885,-1.558 -3.164,-2.062 -1.279,-0.503 -2.776,-0.755 -4.492,-0.755 h -12.452 v 30.783 h 8.003 v -11.84 l 7.634,11.84 h 9.962 z m -7.92,-12.003 h 1.51 c 1.579,0 2.789,0.326 3.634,0.979 0.843,0.653 1.266,1.592 1.266,2.817 0,1.225 -0.423,2.163 -1.266,2.816 -0.845,0.654 -2.055,0.98 -3.634,0.98 h -1.51 z m -13.595,0.612 v -6.777 h -21.149 v 6.777 h 6.573 v 24.006 h 8.002 v -24.006 z m -25.15,-5.144 a 21.119,21.119 0 0 0 -4.777,-1.857 c -1.66,-0.422 -3.253,-0.633 -4.776,-0.633 -1.632,0 -3.109,0.245 -4.43,0.735 -1.32,0.49 -2.436,1.177 -3.348,2.061 a 9.187,9.187 0 0 0 -2.123,3.185 c -0.504,1.238 -0.755,2.62 -0.755,4.143 0,1.525 0.237,2.784 0.714,3.777 0.477,0.994 1.102,1.817 1.878,2.471 a 9.577,9.577 0 0 0 2.655,1.572 43.76,43.76 0 0 0 3.042,1.081 c 0.87,0.301 1.612,0.572 2.224,0.818 0.612,0.245 1.109,0.51 1.49,0.796 0.381,0.286 0.654,0.598 0.818,0.938 0.164,0.341 0.245,0.742 0.245,1.205 0,0.762 -0.32,1.443 -0.959,2.041 -0.64,0.599 -1.612,0.899 -2.919,0.899 -1.143,0 -2.301,-0.257 -3.469,-0.775 -1.171,-0.518 -2.355,-1.307 -3.553,-2.368 l -3.429,6.45 c 3.32,2.314 6.926,3.47 10.82,3.47 1.877,0 3.559,-0.252 5.042,-0.755 1.483,-0.504 2.736,-1.211 3.756,-2.123 a 8.952,8.952 0 0 0 2.327,-3.287 c 0.53,-1.279 0.796,-2.707 0.796,-4.286 0,-2.341 -0.607,-4.24 -1.817,-5.696 -1.21,-1.456 -3.123,-2.619 -5.736,-3.491 a 49.914,49.914 0 0 0 -1.98,-0.611 10.895,10.895 0 0 1 -1.797,-0.675 c -0.531,-0.257 -0.958,-0.564 -1.286,-0.919 -0.326,-0.353 -0.49,-0.802 -0.49,-1.347 0,-0.789 0.326,-1.429 0.98,-1.919 0.653,-0.49 1.496,-0.735 2.532,-0.735 0.816,0 1.659,0.17 2.531,0.51 0.87,0.34 1.741,0.864 2.613,1.572 z m -49.686,29.151 v -18.821 l 14.779,18.821 h 7.961 v -30.783 h -7.961 v 18.821 l -14.78,-18.821 h -8.002 v 30.783 z M 53.443,146.422 H 35.928 v 30.783 h 17.515 v -6.778 H 43.93 v -5.307 h 8.981 v -6.777 H 43.93 v -5.144 h 9.512 v -6.777 z m -53.443,0 12.942,30.783 h 6.37 L 32.295,146.422 H 23.6 l -7.472,18.739 -7.43,-18.739 z"
       id="path2"
       style="fill:#006666;fill-opacity:1" />
  </g>
  <defs
     id="defs9">
    <clipPath
       id="clip0_1_2">
      <path
         fill="#ffffff"
         d="M 0,0 H 195 V 195 H 0 Z"
         id="path6" />
    </clipPath>
  </defs>
</svg>
